<svg clip-rule="evenodd" fill-rule="evenodd" stroke-linejoin="round" stroke-miterlimit="2" viewBox="0 0 32 32" xmlns="http://www.w3.org/2000/svg"><g fill="#fff"><path d="m27.711 26.342c-13.208 6.286-21.405 1.027-26.652-2.167-.325-.202-.876.047-.398.597 1.749 2.119 7.477 7.228 14.955 7.228 7.483 0 11.934-4.083 12.491-4.795.553-.706.163-1.096-.396-.863zm3.709-2.048c-.354-.462-2.156-.548-3.291-.409-1.135.135-2.84.83-2.692 1.246.076.156.231.086 1.012.016.782-.078 2.974-.354 3.431.243.458.601-.7 3.465-.911 3.927-.204.461.078.58.462.273.378-.308 1.064-1.104 1.523-2.231.457-1.133.736-2.714.466-3.065z" fill-rule="nonzero"/><path d="m18.83 13.516c0 1.649.042 3.025-.792 4.49-.673 1.19-1.738 1.923-2.929 1.923-1.626 0-2.573-1.239-2.573-3.067 0-3.608 3.234-4.263 6.294-4.263zm4.269 10.319c-.28.25-.684.268-1 .101-1.405-1.167-1.655-1.709-2.429-2.822-2.322 2.37-3.966 3.078-6.979 3.078-3.56 0-6.335-2.197-6.335-6.597 0-3.436 1.864-5.776 4.513-6.919 2.299-1.012 5.508-1.191 7.961-1.471v-.548c0-1.006.077-2.197-.512-3.066-.518-.78-1.506-1.101-2.376-1.101-1.613 0-3.054.827-3.406 2.542-.071.381-.351.756-.732.774l-4.108-.44c-.346-.078-.727-.358-.631-.888.946-4.977 5.442-6.478 9.467-6.478 2.06 0 4.751.548 6.377 2.108 2.06 1.923 1.863 4.489 1.863 7.282v6.597c0 1.983.822 2.852 1.596 3.924.274.381.333.84-.012 1.125-.863.721-2.399 2.06-3.245 2.811z"/></g></svg>