<svg clip-rule="evenodd" fill-rule="evenodd" stroke-linejoin="round" stroke-miterlimit="2" viewBox="0 0 32 32" xmlns="http://www.w3.org/2000/svg"><path d="m20.579 5.172c-1.131 1.293-2.909 2.424-4.686 2.262-.324-1.939.646-3.878 1.616-5.01 1.131-1.454 3.07-2.424 4.687-2.424.161 1.778-.485 3.717-1.617 5.172zm1.617 2.586c.969 0 3.878.323 5.818 3.232-.162.162-3.394 2.101-3.394 6.141 0 4.849 4.202 6.465 4.202 6.465 0 .162-.647 2.263-2.101 4.525-1.293 1.94-2.748 3.879-4.849 3.879s-2.747-1.293-5.171-1.293c-2.425 0-3.233 1.293-5.172 1.293-2.101 0-3.717-2.101-5.01-4.04-2.748-4.041-4.849-11.314-1.94-16.162 1.293-2.424 3.879-4.04 6.465-4.04 2.101 0 4.04 1.454 5.172 1.454 1.131 0 3.394-1.616 5.98-1.454z" fill="#fff" fill-rule="nonzero"/></svg>