<svg clip-rule="evenodd" fill-rule="evenodd" stroke-linejoin="round" stroke-miterlimit="2" viewBox="0 0 32 32" xmlns="http://www.w3.org/2000/svg"><path d="m25.465 14.184c-5.158-3.063-13.665-3.344-18.589-1.85-.79.24-1.626-.206-1.866-.997-.239-.791.207-1.626.998-1.867 5.651-1.715 15.047-1.384 20.984 2.141.711.422.945 1.34.523 2.05-.422.711-1.341.946-2.05.523zm-.169 4.537c-.362.587-1.13.771-1.716.411-4.3-2.643-10.857-3.409-15.944-1.865-.659.2-1.356-.172-1.556-.831-.199-.66.173-1.355.831-1.556 5.812-1.763 13.036-.909 17.974 2.126.587.361.771 1.129.411 1.715zm-1.958 4.357c-.288.471-.901.619-1.371.331-3.758-2.296-8.487-2.814-14.056-1.542-.537.123-1.072-.214-1.194-.75-.123-.537.212-1.072.75-1.194 6.095-1.393 11.323-.794 15.54 1.783.47.287.618.902.331 1.372zm-7.338-23.078c-8.836 0-16 7.163-16 16s7.164 16 16 16c8.837 0 16-7.163 16-16s-7.163-16-16-16z" fill="#fff" fill-rule="nonzero"/></svg>