<svg clip-rule="evenodd" fill-rule="evenodd" stroke-linejoin="round" stroke-miterlimit="2" viewBox="0 0 32 32" xmlns="http://www.w3.org/2000/svg"><path d="m16 0c8.831 0 16 7.169 16 16s-7.169 16-16 16-16-7.169-16-16 7.169-16 16-16zm0 7.636c-4.618 0-8.364 3.746-8.364 8.364s3.746 8.364 8.364 8.364 8.364-3.746 8.364-8.364-3.746-8.364-8.364-8.364zm0 .728c4.2 0 7.636 3.418 7.636 7.636s-3.418 7.636-7.636 7.636-7.636-3.418-7.636-7.636 3.436-7.636 7.636-7.636zm-2.909 11.818 7.091-4.364-7.091-4z" fill="#fff"/></svg>